<svg xmlns="http://www.w3.org/2000/svg" viewBox="0 0 158 177" fill="none">
  <path fill="#D6942F" d="M0 45h18v95.5L0 130.248V45ZM32 62h18v97l-18-10V62ZM63 83h18v94l-18-10.5V83ZM139 45h18v98h-18V45Z"/>
  <path fill="#D6942F" d="m79 0 8.519 14.755-78.52 45.333L.482 45.333zM100.515 22.776l8.519 14.755L40.518 77.09 32 62.333zM136.254 40.264l8.52 14.755L71.52 97.312 63 82.557zM149.184 129.463 157 143l-58.871 33.989-7.816-13.537z"/>
  <path fill="#D6942F" d="M70 15.588 79 0l78.065 45.07-9 15.59z"/>
  <path fill="#1F0D6C" d="M96 101.985 127 84v41.109L96 143v-41.015Z"/>
</svg>